<svg xmlns="http://www.w3.org/2000/svg" width="1280" height="860" viewBox="0 0 1280 860">
<rect x="0" y="0" width="1280" height="860" fill="white"/>
<line x1="154.40" y1="44" x2="154.40" y2="732" stroke="#e0e0e0" stroke-width="1"/>
<text x="154.40" y="768" font-size="20" text-anchor="middle" fill="#222">1.1</text>
<line x1="243.20" y1="44" x2="243.20" y2="732" stroke="#e0e0e0" stroke-width="1"/>
<text x="243.20" y="768" font-size="20" text-anchor="middle" fill="#222">1.2</text>
<line x1="332.00" y1="44" x2="332.00" y2="732" stroke="#e0e0e0" stroke-width="1"/>
<text x="332.00" y="768" font-size="20" text-anchor="middle" fill="#222">1.3</text>
<line x1="420.80" y1="44" x2="420.80" y2="732" stroke="#e0e0e0" stroke-width="1"/>
<text x="420.80" y="768" font-size="20" text-anchor="middle" fill="#222">1.4</text>
<line x1="509.60" y1="44" x2="509.60" y2="732" stroke="#e0e0e0" stroke-width="1"/>
<text x="509.60" y="768" font-size="20" text-anchor="middle" fill="#222">1.5</text>
<line x1="598.40" y1="44" x2="598.40" y2="732" stroke="#e0e0e0" stroke-width="1"/>
<text x="598.40" y="768" font-size="20" text-anchor="middle" fill="#222">1.6</text>
<line x1="687.20" y1="44" x2="687.20" y2="732" stroke="#e0e0e0" stroke-width="1"/>
<text x="687.20" y="768" font-size="20" text-anchor="middle" fill="#222">1.7</text>
<line x1="776.00" y1="44" x2="776.00" y2="732" stroke="#e0e0e0" stroke-width="1"/>
<text x="776.00" y="768" font-size="20" text-anchor="middle" fill="#222">1.8</text>
<line x1="864.80" y1="44" x2="864.80" y2="732" stroke="#e0e0e0" stroke-width="1"/>
<text x="864.80" y="768" font-size="20" text-anchor="middle" fill="#222">1.9</text>
<line x1="953.60" y1="44" x2="953.60" y2="732" stroke="#e0e0e0" stroke-width="1"/>
<text x="953.60" y="768" font-size="20" text-anchor="middle" fill="#222">2</text>
<line x1="110" y1="732.00" x2="998" y2="732.00" stroke="#e0e0e0" stroke-width="1"/>
<text x="94" y="739.00" font-size="20" text-anchor="end" fill="#222">0</text>
<line x1="110" y1="535.43" x2="998" y2="535.43" stroke="#e0e0e0" stroke-width="1"/>
<text x="94" y="542.43" font-size="20" text-anchor="end" fill="#222">0.1</text>
<line x1="110" y1="338.86" x2="998" y2="338.86" stroke="#e0e0e0" stroke-width="1"/>
<text x="94" y="345.86" font-size="20" text-anchor="end" fill="#222">0.2</text>
<line x1="110" y1="142.29" x2="998" y2="142.29" stroke="#e0e0e0" stroke-width="1"/>
<text x="94" y="149.29" font-size="20" text-anchor="end" fill="#222">0.3</text>
<rect x="110" y="44" width="888" height="688" fill="none" stroke="#111" stroke-width="2"/>
<path d="M 243.20 365.32 L 598.40 475.63" fill="none" stroke="#1565C0" stroke-width="2.5" stroke-dasharray="2 5" opacity="0.95"/>
<circle cx="243.20" cy="365.32" r="5" fill="#1565C0" stroke="white" stroke-width="1.2"/>
<circle cx="598.40" cy="475.63" r="5" fill="#1565C0" stroke="white" stroke-width="1.2"/>
<path d="M 154.40 339.81 L 243.20 552.47 L 332.00 332.84 L 420.80 371.03 L 509.60 416.76 L 687.20 556.32" fill="none" stroke="#1565C0" stroke-width="2.5" opacity="0.95"/>
<circle cx="154.40" cy="339.81" r="5" fill="#1565C0" stroke="white" stroke-width="1.2"/>
<circle cx="243.20" cy="552.47" r="5" fill="#1565C0" stroke="white" stroke-width="1.2"/>
<circle cx="332.00" cy="332.84" r="5" fill="#1565C0" stroke="white" stroke-width="1.2"/>
<circle cx="420.80" cy="371.03" r="5" fill="#1565C0" stroke="white" stroke-width="1.2"/>
<circle cx="509.60" cy="416.76" r="5" fill="#1565C0" stroke="white" stroke-width="1.2"/>
<circle cx="687.20" cy="556.32" r="5" fill="#1565C0" stroke="white" stroke-width="1.2"/>
<path d="M 154.40 205.57 L 243.20 429.55 L 332.00 225.15 L 420.80 257.67 L 509.60 426.83 L 598.40 504.80 L 687.20 457.69 L 776.00 281.11 L 864.80 355.64 L 953.60 712.11" fill="none" stroke="#1565C0" stroke-width="2.5" stroke-dasharray="9 5" opacity="0.95"/>
<circle cx="154.40" cy="205.57" r="5" fill="#1565C0" stroke="white" stroke-width="1.2"/>
<circle cx="243.20" cy="429.55" r="5" fill="#1565C0" stroke="white" stroke-width="1.2"/>
<circle cx="332.00" cy="225.15" r="5" fill="#1565C0" stroke="white" stroke-width="1.2"/>
<circle cx="420.80" cy="257.67" r="5" fill="#1565C0" stroke="white" stroke-width="1.2"/>
<circle cx="509.60" cy="426.83" r="5" fill="#1565C0" stroke="white" stroke-width="1.2"/>
<circle cx="598.40" cy="504.80" r="5" fill="#1565C0" stroke="white" stroke-width="1.2"/>
<circle cx="687.20" cy="457.69" r="5" fill="#1565C0" stroke="white" stroke-width="1.2"/>
<circle cx="776.00" cy="281.11" r="5" fill="#1565C0" stroke="white" stroke-width="1.2"/>
<circle cx="864.80" cy="355.64" r="5" fill="#1565C0" stroke="white" stroke-width="1.2"/>
<circle cx="953.60" cy="712.11" r="5" fill="#1565C0" stroke="white" stroke-width="1.2"/>
<path d="M 243.20 423.04 L 420.80 575.76 L 598.40 472.41" fill="none" stroke="#2E7D32" stroke-width="2.5" opacity="0.95"/>
<circle cx="243.20" cy="423.04" r="5" fill="#2E7D32" stroke="white" stroke-width="1.2"/>
<circle cx="420.80" cy="575.76" r="5" fill="#2E7D32" stroke="white" stroke-width="1.2"/>
<circle cx="598.40" cy="472.41" r="5" fill="#2E7D32" stroke="white" stroke-width="1.2"/>
<path d="M 243.20 240.13 L 598.40 290.58 L 953.60 573.38" fill="none" stroke="#2E7D32" stroke-width="2.5" stroke-dasharray="9 5" opacity="0.95"/>
<circle cx="243.20" cy="240.13" r="5" fill="#2E7D32" stroke="white" stroke-width="1.2"/>
<circle cx="598.40" cy="290.58" r="5" fill="#2E7D32" stroke="white" stroke-width="1.2"/>
<circle cx="953.60" cy="573.38" r="5" fill="#2E7D32" stroke="white" stroke-width="1.2"/>
<path d="M 243.20 449.03 L 420.80 511.80 L 598.40 590.86" fill="none" stroke="#B8B200" stroke-width="2.5" opacity="0.95"/>
<circle cx="243.20" cy="449.03" r="5" fill="#B8B200" stroke="white" stroke-width="1.2"/>
<circle cx="420.80" cy="511.80" r="5" fill="#B8B200" stroke="white" stroke-width="1.2"/>
<circle cx="598.40" cy="590.86" r="5" fill="#B8B200" stroke="white" stroke-width="1.2"/>
<path d="M 243.20 501.20 L 598.40 715.40 L 953.60 641.51" fill="none" stroke="#B8B200" stroke-width="2.5" stroke-dasharray="9 5" opacity="0.95"/>
<circle cx="243.20" cy="501.20" r="5" fill="#B8B200" stroke="white" stroke-width="1.2"/>
<circle cx="598.40" cy="715.40" r="5" fill="#B8B200" stroke="white" stroke-width="1.2"/>
<circle cx="953.60" cy="641.51" r="5" fill="#B8B200" stroke="white" stroke-width="1.2"/>
<path d="M 243.20 538.91 L 420.80 678.64 L 598.40 697.26" fill="none" stroke="#F39C12" stroke-width="2.5" opacity="0.95"/>
<circle cx="243.20" cy="538.91" r="5" fill="#F39C12" stroke="white" stroke-width="1.2"/>
<circle cx="420.80" cy="678.64" r="5" fill="#F39C12" stroke="white" stroke-width="1.2"/>
<circle cx="598.40" cy="697.26" r="5" fill="#F39C12" stroke="white" stroke-width="1.2"/>
<path d="M 243.20 580.38 L 598.40 533.57 L 953.60 671.43" fill="none" stroke="#F39C12" stroke-width="2.5" stroke-dasharray="9 5" opacity="0.95"/>
<circle cx="243.20" cy="580.38" r="5" fill="#F39C12" stroke="white" stroke-width="1.2"/>
<circle cx="598.40" cy="533.57" r="5" fill="#F39C12" stroke="white" stroke-width="1.2"/>
<circle cx="953.60" cy="671.43" r="5" fill="#F39C12" stroke="white" stroke-width="1.2"/>
<path d="M 243.20 660.48 L 598.40 612.84 L 953.60 692.21" fill="none" stroke="#E53935" stroke-width="2.5" stroke-dasharray="9 5" opacity="0.95"/>
<circle cx="243.20" cy="660.48" r="5" fill="#E53935" stroke="white" stroke-width="1.2"/>
<circle cx="598.40" cy="612.84" r="5" fill="#E53935" stroke="white" stroke-width="1.2"/>
<circle cx="953.60" cy="692.21" r="5" fill="#E53935" stroke="white" stroke-width="1.2"/>
<path d="M 243.20 696.98 L 598.40 715.63" fill="none" stroke="#8E44AD" stroke-width="2.5" stroke-dasharray="9 5" opacity="0.95"/>
<circle cx="243.20" cy="696.98" r="5" fill="#8E44AD" stroke="white" stroke-width="1.2"/>
<circle cx="598.40" cy="715.63" r="5" fill="#8E44AD" stroke="white" stroke-width="1.2"/>
<text x="640.00" y="34" font-size="30" text-anchor="middle" fill="#111">Bound Mass Fraction vs Periapsis</text>
<text x="554.00" y="842" font-size="26" text-anchor="middle" fill="#111">Periapsis (R♂)</text>
<text x="30" y="388.00" font-size="26" text-anchor="middle" fill="#111" transform="rotate(-90 30 388.00)">Bound Mass Fraction</text>
<rect x="1014" y="86" width="230" height="244" fill="white" stroke="#cccccc" stroke-width="1"/>
<text x="1030" y="110" font-size="22" fill="#111">v∞ (km s⁻¹)</text>
<line x1="1030" y1="120" x2="1056" y2="120" stroke="#1565C0" stroke-width="3"/>
<text x="1070" y="127" font-size="19" fill="#111">0</text>
<line x1="1030" y1="150" x2="1056" y2="150" stroke="#2E7D32" stroke-width="3"/>
<text x="1070" y="157" font-size="19" fill="#111">0.2</text>
<line x1="1030" y1="180" x2="1056" y2="180" stroke="#B8B200" stroke-width="3"/>
<text x="1070" y="187" font-size="19" fill="#111">0.4</text>
<line x1="1030" y1="210" x2="1056" y2="210" stroke="#F39C12" stroke-width="3"/>
<text x="1070" y="217" font-size="19" fill="#111">0.6</text>
<line x1="1030" y1="240" x2="1056" y2="240" stroke="#E53935" stroke-width="3"/>
<text x="1070" y="247" font-size="19" fill="#111">0.8</text>
<line x1="1030" y1="270" x2="1056" y2="270" stroke="#8E44AD" stroke-width="3"/>
<text x="1070" y="277" font-size="19" fill="#111">1</text>
<rect x="1014" y="456" width="230" height="120" fill="white" stroke="#cccccc" stroke-width="1"/>
<text x="1030" y="476" font-size="22" fill="#111">Lz (Lmax) - spin</text>
<line x1="1030" y1="484" x2="1058" y2="484" stroke="#111" stroke-width="2.5"/>
<text x="1070" y="491" font-size="18" fill="#111">0</text>
<line x1="1030" y1="512" x2="1058" y2="512" stroke="#111" stroke-width="2.5" stroke-dasharray="9 5"/>
<text x="1070" y="519" font-size="18" fill="#111">0.5</text>
<line x1="1030" y1="540" x2="1058" y2="540" stroke="#111" stroke-width="2.5" stroke-dasharray="2 5"/>
<text x="1070" y="547" font-size="18" fill="#111">1</text>
</svg>